<svg xmlns="http://www.w3.org/2000/svg" viewBox="0 0 135.03 91.99"><defs><style>.cls-1{fill:#1f2937;}</style></defs><g id="Layer_2" data-name="Layer 2"><g id="OBJECTS"><path class="cls-1" d="M15,79.87v-23H7V52.48H28.39V56.9h-8v23Z"/><path class="cls-1" d="M32.1,79.87V52.48H42.48A11.86,11.86,0,0,1,48,53.61a7.6,7.6,0,0,1,3.23,3,8.84,8.84,0,0,1,0,8.36A7.52,7.52,0,0,1,48,68.07a11.78,11.78,0,0,1-5.57,1.16H37.58V79.87Zm5.48-14.63h4.54a4.6,4.6,0,0,0,3.45-1.14,4.15,4.15,0,0,0,1.09-3,4,4,0,0,0-1.07-2.94,4.72,4.72,0,0,0-3.47-1.09H37.58Zm8.69,14.63-5.59-12h5.91l5.94,12Z"/><path class="cls-1" d="M67.6,80.34a12.47,12.47,0,0,1-5.54-1.21,9.18,9.18,0,0,1-3.93-3.66,12,12,0,0,1-1.45-6.2V52.48h5.48V69.31a7.55,7.55,0,0,0,.65,3.32,4.46,4.46,0,0,0,1.89,2,7,7,0,0,0,6,0,4.59,4.59,0,0,0,1.9-2,7.4,7.4,0,0,0,.67-3.32V52.48h5.48V69.27a11.69,11.69,0,0,1-1.51,6.2,9.53,9.53,0,0,1-4,3.66A12.83,12.83,0,0,1,67.6,80.34Z"/><path class="cls-1" d="M96.09,80.34a13.42,13.42,0,0,1-7-1.78,11.73,11.73,0,0,1-4.56-5,16.33,16.33,0,0,1-1.59-7.38,16.43,16.43,0,0,1,1.59-7.39,11.83,11.83,0,0,1,4.56-5,13.33,13.33,0,0,1,7-1.8,13,13,0,0,1,8.22,2.5,10.9,10.9,0,0,1,4,7.05h-6a5.56,5.56,0,0,0-2.06-3.39A6.81,6.81,0,0,0,96.05,57,7.23,7.23,0,0,0,92,58.09a7.15,7.15,0,0,0-2.58,3.19,12.36,12.36,0,0,0-.9,4.93,12.21,12.21,0,0,0,.9,4.92,6.79,6.79,0,0,0,6.65,4.28,7,7,0,0,0,4.15-1.11,5.35,5.35,0,0,0,2.08-3.12h6a10.47,10.47,0,0,1-4,6.72A13.18,13.18,0,0,1,96.09,80.34Z"/><path class="cls-1" d="M112.76,79.87V52.48h5.48V63.16L128,52.48h6.77l-10.1,10.84L135,79.87h-6.65l-7.63-12.33-2.51,2.74v9.59Z"/><path class="cls-1" d="M60.26,91.87V85.11h1.16v6.76Zm1-3V88h3.51v1Zm3.29,3V85.11H65.7v6.76Z"/><path class="cls-1" d="M70.77,92a2,2,0,0,1-1-.24,1.58,1.58,0,0,1-.64-.71,2.76,2.76,0,0,1-.22-1.18V87h1.16v2.74a1.45,1.45,0,0,0,.27,1,1,1,0,0,0,.8.32,1.11,1.11,0,0,0,.62-.17,1.22,1.22,0,0,0,.43-.47,1.58,1.58,0,0,0,.16-.76V87h1.16v4.87h-1l-.08-.81a1.67,1.67,0,0,1-.64.68A2,2,0,0,1,70.77,92Z"/><path class="cls-1" d="M79.53,92a2.1,2.1,0,0,1-.7-.11,1.72,1.72,0,0,1-.54-.28,2.23,2.23,0,0,1-.41-.4l-.1.67h-1v-7H77.9v2.8a2.1,2.1,0,0,1,.63-.59,1.87,1.87,0,0,1,1-.24,2.26,2.26,0,0,1,2,1.24,2.78,2.78,0,0,1,.3,1.31,2.81,2.81,0,0,1-.3,1.31,2.29,2.29,0,0,1-.83.91A2.21,2.21,0,0,1,79.53,92Zm-.25-1a1.3,1.3,0,0,0,.71-.19,1.35,1.35,0,0,0,.49-.54,1.8,1.8,0,0,0,0-1.61,1.38,1.38,0,0,0-.49-.55,1.31,1.31,0,0,0-.71-.2,1.36,1.36,0,0,0-.74.2,1.31,1.31,0,0,0-.49.55,1.69,1.69,0,0,0-.17.8,1.71,1.71,0,0,0,.17.8,1.35,1.35,0,0,0,.49.54A1.28,1.28,0,0,0,79.28,91Z"/><path class="cls-1" d="M119,23.8l-13.78-1.45v-3a6.16,6.16,0,0,0-6.15-6.15H97.23S94,0,69.78,0H0L62.21,8.23H8.72l54.43,8.23H17.44L64.1,24.69H26.17l38.88,8.23H34.89l34.89,9.23H90.63a7.17,7.17,0,0,0,13.2,0h16.8a1.94,1.94,0,0,0,1.93-1.93V27.85A4.1,4.1,0,0,0,119,23.8Zm-17-.66H93.15V17.86l-11.8-1.4H98A4.06,4.06,0,0,1,102,20.52Z"/></g></g></svg>