<svg xmlns="http://www.w3.org/2000/svg" viewBox="0 0 135.03 99.02"><defs><style>.cls-1{fill:#fff;}</style></defs><g id="Layer_2" data-name="Layer 2"><g id="OBJECTS"><path class="cls-1" d="M15,79.87v-23H7V52.48H28.39V56.9h-8v23Z"/><path class="cls-1" d="M32.1,79.87V52.48H42.48A11.86,11.86,0,0,1,48,53.61a7.6,7.6,0,0,1,3.23,3,8.84,8.84,0,0,1,0,8.36A7.52,7.52,0,0,1,48,68.07a11.78,11.78,0,0,1-5.57,1.16H37.58V79.87Zm5.48-14.63h4.54a4.6,4.6,0,0,0,3.45-1.14,4.15,4.15,0,0,0,1.09-3,4,4,0,0,0-1.07-2.94,4.72,4.72,0,0,0-3.47-1.09H37.58Zm8.69,14.63-5.59-12h5.91l5.94,12Z"/><path class="cls-1" d="M67.6,80.34a12.47,12.47,0,0,1-5.54-1.21,9.18,9.18,0,0,1-3.93-3.66,12,12,0,0,1-1.45-6.2V52.48h5.48V69.31a7.55,7.55,0,0,0,.65,3.32,4.46,4.46,0,0,0,1.89,2,7,7,0,0,0,6,0,4.59,4.59,0,0,0,1.9-2,7.4,7.4,0,0,0,.67-3.32V52.48h5.48V69.27a11.69,11.69,0,0,1-1.51,6.2,9.53,9.53,0,0,1-4,3.66A12.83,12.83,0,0,1,67.6,80.34Z"/><path class="cls-1" d="M96.09,80.34a13.42,13.42,0,0,1-7-1.78,11.73,11.73,0,0,1-4.56-5,16.33,16.33,0,0,1-1.59-7.38,16.43,16.43,0,0,1,1.59-7.39,11.83,11.83,0,0,1,4.56-5,13.33,13.33,0,0,1,7-1.8,13,13,0,0,1,8.22,2.5,10.9,10.9,0,0,1,4,7.05h-6a5.56,5.56,0,0,0-2.06-3.39A6.81,6.81,0,0,0,96.05,57,7.23,7.23,0,0,0,92,58.09a7.15,7.15,0,0,0-2.58,3.19,12.36,12.36,0,0,0-.9,4.93,12.21,12.21,0,0,0,.9,4.92,6.79,6.79,0,0,0,6.65,4.28,7,7,0,0,0,4.15-1.11,5.35,5.35,0,0,0,2.08-3.12h6a10.47,10.47,0,0,1-4,6.72A13.18,13.18,0,0,1,96.09,80.34Z"/><path class="cls-1" d="M112.76,79.87V52.48h5.48V63.16L128,52.48h6.77l-10.1,10.84L135,79.87h-6.65l-7.63-12.33-2.51,2.74v9.59Z"/><path class="cls-1" d="M48.87,98.76V84.06h2.52v14.7ZM51,92.3V90.24h7.62V92.3Zm7.16,6.46V84.06h2.52v14.7Z"/><path class="cls-1" d="M71.71,99a4.28,4.28,0,0,1-2.17-.52A3.37,3.37,0,0,1,68.14,97a6,6,0,0,1-.48-2.55V88.18h2.52v5.94a3.17,3.17,0,0,0,.58,2.07,2.13,2.13,0,0,0,1.75.71,2.57,2.57,0,0,0,1.34-.37,2.68,2.68,0,0,0,.94-1,3.54,3.54,0,0,0,.35-1.65V88.18h2.52V98.76H75.43L75.24,97a3.47,3.47,0,0,1-1.37,1.47A4.18,4.18,0,0,1,71.71,99Z"/><path class="cls-1" d="M90.74,99a4.71,4.71,0,0,1-1.52-.23A4.41,4.41,0,0,1,88,98.17a4.26,4.26,0,0,1-.87-.88l-.23,1.47H84.69V83.64h2.52v6.1a4.25,4.25,0,0,1,1.37-1.29,4,4,0,0,1,2.12-.52,4.89,4.89,0,0,1,2.64.72,5,5,0,0,1,1.81,2,6.1,6.1,0,0,1,.65,2.84,6.18,6.18,0,0,1-.65,2.86,4.83,4.83,0,0,1-1.8,2A4.78,4.78,0,0,1,90.74,99Zm-.55-2.19a2.89,2.89,0,0,0,1.56-.42,3.07,3.07,0,0,0,1.07-1.16,4,4,0,0,0,0-3.51,3.12,3.12,0,0,0-1.07-1.2,2.9,2.9,0,0,0-1.56-.43,3,3,0,0,0-1.6.43,2.91,2.91,0,0,0-1.06,1.19,3.75,3.75,0,0,0-.38,1.74,3.79,3.79,0,0,0,.38,1.75,2.82,2.82,0,0,0,1.06,1.18A2.9,2.9,0,0,0,90.19,96.83Z"/><path class="cls-1" d="M119,23.8l-13.78-1.45v-3a6.16,6.16,0,0,0-6.15-6.15H97.23S94,0,69.78,0H0L62.21,8.23H8.72l54.43,8.23H17.44L64.1,24.69H26.17l38.88,8.23H34.89l34.89,9.23H90.63a7.17,7.17,0,0,0,13.2,0h16.8a1.94,1.94,0,0,0,1.93-1.93V27.85A4.1,4.1,0,0,0,119,23.8Zm-17-.66H93.15V17.86l-11.8-1.4H98A4.06,4.06,0,0,1,102,20.52Z"/></g></g></svg>