<svg xmlns="http://www.w3.org/2000/svg" viewBox="0 0 197.71 196.95"><defs><style>.cls-1{fill:#39b54a;stroke:#3d3d3d;stroke-miterlimit:10;stroke-width:0.5px;}</style></defs><g id="Layer_2" data-name="Layer 2"><g id="Layer_1-2" data-name="Layer 1"><path class="cls-1" d="M57.22,28.48a29.51,29.51,0,0,1-19.11-6.94L20.88,37.94a27.69,27.69,0,0,1,8.5,19.92c0,15.59-13,28.23-29.13,28.23V111.5c16.09,0,29.13,12.63,29.13,28.22,0,7.9-8.73,20.15-8.73,20.15l16.48,15.76a29.53,29.53,0,0,1,20.09-7.81c16.09,0,29.13,12.64,29.13,28.23,0,.22,0,.43,0,.65H111c0-.13,0-.26,0-.39,0-15.59,13-28.23,29.13-28.23a29.53,29.53,0,0,1,20.4,8.09l15.73-15.86.95-1.21s-7.83-11.73-7.83-19.38c0-15.25,12.49-27.67,28.1-28.2V86.09c-16.08,0-29.12-12.64-29.12-28.23a27.68,27.68,0,0,1,8.15-19.57L160,20.89a29.54,29.54,0,0,1-19.86,7.59C124,28.48,111,15.84,111,.25H86.35C86.35,15.84,73.31,28.48,57.22,28.48Zm-10.65,30,30.8,32-31.95.26L44.9,58.5ZM151.14,73.64,150.25,140l-13.86-13.6-.26-61.2Zm-12.06,77.5H83.91L63.76,140l-.51-1.92h63ZM120.86,51.06V108.8h-2L105.59,95.71l-.12-48.5Zm-12.57,70.32H49l-3.59-14.25H95.2Zm-18.09-76,.89,32.33H87.76L57,45.42Z"/></g></g></svg>