<svg xmlns="http://www.w3.org/2000/svg" viewBox="0 0 65.35 71.6"><defs><style>.cls-1{fill:#3f30ff;stroke-width:0.5px;}.cls-1,.cls-2,.cls-3,.cls-4,.cls-5{stroke:#fff;stroke-miterlimit:10;}.cls-2{fill:#231f20;}.cls-2,.cls-3,.cls-4,.cls-5{stroke-width:0.25px;}.cls-3{fill:#262261;}.cls-4{fill:#1592ff;}.cls-5{fill:#e4e4e4;}</style></defs><g id="Layer_2" data-name="Layer 2"><g id="Layer_1-2" data-name="Layer 1"><path class="cls-1" d="M20.43,13C22,7.63,24.14,3.39,26.71.8A32.52,32.52,0,0,0,6.94,13Z"/><path class="cls-1" d="M.26,31.92H17.9a74.24,74.24,0,0,1,1.92-16.65H5.33A32.17,32.17,0,0,0,.26,31.92Z"/><path class="cls-1" d="M32.68.25c-3.1,0-6.23,3.32-8.58,9.12-.46,1.13-.88,2.34-1.27,3.6H42.52c-.38-1.26-.81-2.47-1.27-3.6C38.9,3.57,35.77.25,32.68.25Z"/><path class="cls-1" d="M38.64.8C41.21,3.39,43.38,7.63,44.92,13H58.41A32.52,32.52,0,0,0,38.64.8Z"/><path class="cls-1" d="M43.15,15.27H22.2a71.4,71.4,0,0,0-2,16.65h25A71.38,71.38,0,0,0,43.15,15.27Z"/><path class="cls-1" d="M43.15,50.1a71.27,71.27,0,0,0,2-15.88H20.2a71.27,71.27,0,0,0,2,15.88Z"/><path class="cls-1" d="M19.82,50.1a73.88,73.88,0,0,1-1.91-15.88H.28A32.3,32.3,0,0,0,5.33,50.1Z"/><path class="cls-1" d="M65.07,34.22H47.45A74.49,74.49,0,0,1,45.53,50.1H60A32.2,32.2,0,0,0,65.07,34.22Z"/><path class="cls-1" d="M60,15.27H45.53a74.8,74.8,0,0,1,1.93,16.65H65.1A32.27,32.27,0,0,0,60,15.27Z"/><path class="cls-1" d="M32.68,65.11c3.09,0,6.22-3.32,8.57-9.12.46-1.13.89-2.34,1.27-3.6H22.83c.39,1.26.81,2.47,1.27,3.6C26.45,61.79,29.58,65.11,32.68,65.11Z"/><path class="cls-1" d="M26.71,64.56C24.14,62,22,57.74,20.43,52.39H6.94A32.47,32.47,0,0,0,26.71,64.56Z"/><path class="cls-1" d="M44.92,52.39c-1.54,5.35-3.71,9.58-6.28,12.17A32.47,32.47,0,0,0,58.41,52.39Z"/><path class="cls-2" d="M1,66.59H5.15c0-.2,0-.41,0-.62a6.56,6.56,0,0,1,.12-1.26H1Z"/><path class="cls-3" d="M30.68,58H1v6.74H5.24a6.64,6.64,0,0,1,13.05,0H30.68Z"/><path class="cls-2" d="M18.29,64.71A6.57,6.57,0,0,1,18.42,66c0,.21,0,.42,0,.62H30.68V64.71Z"/><polygon class="cls-3" points="45.33 47.81 31.4 47.81 31.4 58.1 52.91 58.1 48.55 57.27 45.33 47.81"/><path class="cls-4" d="M31.4,66.59h2.53c0-.2,0-.41,0-.62A6.55,6.55,0,1,1,47,66c0,.21,0,.42,0,.62h5.95V58H31.4Z"/><path class="cls-2" d="M17.27,66a5.51,5.51,0,1,1-5.5-5.51A5.51,5.51,0,0,1,17.27,66Z"/><path class="cls-5" d="M14.52,66a2.75,2.75,0,1,1-2.75-2.75A2.75,2.75,0,0,1,14.52,66Z"/><path class="cls-2" d="M46,66a5.51,5.51,0,1,1-5.51-5.51A5.51,5.51,0,0,1,46,66Z"/><path class="cls-5" d="M43.19,66a2.75,2.75,0,1,1-2.75-2.75A2.75,2.75,0,0,1,43.19,66Z"/><polygon class="cls-5" points="44.44 57.14 35.72 57.14 35.72 49.35 41.95 49.35 44.44 57.14"/><polygon class="cls-5" points="48.55 57.14 46.39 56.68 43.92 49.35 45.86 49.26 48.55 57.14"/><rect class="cls-2" x="52.91" y="57.97" width="0.5" height="8.62"/><path class="cls-2" d="M37.4,58.39a.29.29,0,0,1-.28.28h-1.9a.28.28,0,0,1-.28-.28h0a.28.28,0,0,1,.28-.29h1.9a.29.29,0,0,1,.28.29Z"/><rect class="cls-4" x="0.96" y="44.58" width="29.71" height="13.39"/></g></g></svg>