<?xml version="1.0" encoding="iso-8859-1"?>
<!-- Uploaded to: SVG Repo, www.svgrepo.com, Generator: SVG Repo Mixer Tools -->
<svg fill="#000000" height="800px" width="800px" version="1.1" id="Layer_1" xmlns="http://www.w3.org/2000/svg" xmlns:xlink="http://www.w3.org/1999/xlink" 
	 viewBox="0 0 512.001 512.001" xml:space="preserve">
<g>
	<g>
		<polygon points="204.497,205.165 159.03,205.165 159.03,256.44 215.255,256.44 		"/>
	</g>
</g>
<g>
	<g>
		<polygon points="438.621,124.697 438.621,157.523 408.204,157.523 408.204,124.697 367.934,124.697 367.934,224.887 
			478.89,224.887 478.89,124.697 		"/>
	</g>
</g>
<g>
	<g>
		<path d="M509.307,355.494H478.89v-100.19h-40.269v32.825h-30.417v-32.825h-40.269v100.19H338.78V94.28V75.202h-30.417v280.292
			h-14.291V270.07l-29.214-139.242H84.691V256.44H0v129.47h20.265c8.938-20.763,29.592-35.339,53.593-35.339
			c24.001,0,44.655,14.577,53.593,35.339h39.17c8.938-20.763,29.592-35.339,53.593-35.339c24.001,0,44.655,14.577,53.593,35.339
			h5.056h15.209h43.447h171.79h2.693v-30.417H509.307z M128.613,286.858V174.748h100.583l23.521,112.109H128.613z"/>
	</g>
</g>
<g>
	<g>
		<circle cx="73.858" cy="408.896" r="27.903"/>
	</g>
</g>
<g>
	<g>
		<circle cx="220.21" cy="408.896" r="27.903"/>
	</g>
</g>
</svg>