<svg xmlns="http://www.w3.org/2000/svg" viewBox="0 0 64.84 71.23"><defs><style>.cls-1{fill:#3f30ff;}.cls-2{fill:#231f20;}.cls-3{fill:#262261;}.cls-4{fill:#6366f1;}.cls-5{fill:#e4e4e4;}</style></defs><g id="Layer_2" data-name="Layer 2"><g id="Layer_1-2" data-name="Layer 1"><path class="cls-1" d="M20.18,12.72C21.72,7.38,23.89,3.14,26.45.55A32.49,32.49,0,0,0,6.69,12.72Z"/><path class="cls-1" d="M0,31.67H17.64A74.21,74.21,0,0,1,19.57,15H5.07A32.17,32.17,0,0,0,0,31.67Z"/><path class="cls-1" d="M32.42,0c-3.1,0-6.22,3.32-8.58,9.12-.46,1.13-.88,2.34-1.26,3.6H42.26c-.38-1.26-.8-2.47-1.26-3.6C38.65,3.32,35.52,0,32.42,0Z"/><path class="cls-1" d="M38.39.55C41,3.14,43.12,7.38,44.66,12.72H58.15A32.47,32.47,0,0,0,38.39.55Z"/><path class="cls-1" d="M42.9,15h-21a71.93,71.93,0,0,0-2,16.65h25A71.4,71.4,0,0,0,42.9,15Z"/><path class="cls-1" d="M42.9,49.85a70.71,70.71,0,0,0,2-15.88H20a70.71,70.71,0,0,0,2,15.88Z"/><path class="cls-1" d="M19.57,49.85A73.23,73.23,0,0,1,17.65,34H0a32.19,32.19,0,0,0,5,15.88Z"/><path class="cls-1" d="M64.81,34H47.19a73.23,73.23,0,0,1-1.92,15.88h14.5A32.19,32.19,0,0,0,64.81,34Z"/><path class="cls-1" d="M59.77,15H45.27A73.64,73.64,0,0,1,47.2,31.67H64.84A32.17,32.17,0,0,0,59.77,15Z"/><path class="cls-1" d="M32.42,64.86c3.1,0,6.23-3.32,8.58-9.12.46-1.13.88-2.34,1.26-3.6H22.58c.38,1.26.8,2.47,1.26,3.6C26.2,61.54,29.32,64.86,32.42,64.86Z"/><path class="cls-1" d="M26.45,64.31c-2.56-2.59-4.73-6.82-6.27-12.17H6.69A32.45,32.45,0,0,0,26.45,64.31Z"/><path class="cls-1" d="M44.66,52.14c-1.54,5.35-3.71,9.58-6.27,12.17A32.42,32.42,0,0,0,58.15,52.14Z"/><path class="cls-2" d="M.71,66.34H4.89c0-.2,0-.41,0-.62A6.57,6.57,0,0,1,5,64.46H.71Z"/><path class="cls-3" d="M30.42,57.72H.71v6.74H5a6.64,6.64,0,0,1,13.05,0H30.42Z"/><path class="cls-2" d="M18,64.46a6.56,6.56,0,0,1,.12,1.26c0,.21,0,.42,0,.62H30.42V64.46Z"/><polygon class="cls-3" points="45.07 47.56 31.15 47.56 31.15 57.85 52.65 57.85 48.29 57.02 45.07 47.56"/><path class="cls-4" d="M31.15,66.34h2.52c0-.2,0-.41,0-.62a6.55,6.55,0,1,1,13.09,0c0,.21,0,.42,0,.62h5.95V57.72H31.15Z"/><path class="cls-2" d="M17,65.72a5.51,5.51,0,1,1-5.51-5.51A5.51,5.51,0,0,1,17,65.72Z"/><path class="cls-5" d="M14.27,65.72A2.76,2.76,0,1,1,11.51,63,2.76,2.76,0,0,1,14.27,65.72Z"/><path class="cls-2" d="M45.69,65.72a5.51,5.51,0,1,1-5.5-5.51A5.51,5.51,0,0,1,45.69,65.72Z"/><path class="cls-5" d="M42.94,65.72A2.76,2.76,0,1,1,40.19,63,2.75,2.75,0,0,1,42.94,65.72Z"/><polygon class="cls-5" points="44.19 56.89 35.46 56.89 35.46 49.1 41.69 49.1 44.19 56.89"/><polygon class="cls-5" points="48.29 56.89 46.14 56.43 43.67 49.1 45.6 49.01 48.29 56.89"/><rect class="cls-2" x="52.65" y="57.72" width="0.5" height="8.62"/><path class="cls-2" d="M37.15,58.14a.29.29,0,0,1-.29.28H35a.29.29,0,0,1-.28-.28h0a.29.29,0,0,1,.28-.29h1.9a.29.29,0,0,1,.29.29Z"/><rect class="cls-4" x="0.71" y="44.33" width="29.71" height="13.39"/></g></g></svg>